{"title":"The.Thing.2011.BRRip.XviD.AC3-PRESTiGE","uid":6871375,"size":1976019011,"categoryP":"video","categoryS":"movies","magnet":"?xt=urn:btih:5c48da6f8316a17be7276a9b267eec6e5259282a&amp;dn=The.Thing.2011.BRRip.XviD.AC3-PRESTiGE&amp;tr=udp%3A%2F%2Ftracker.openbittorrent.com%3A80&amp;tr=udp%3A%2F%2Fopen.demonii.com%3A1337&amp;tr=udp%3A%2F%2Ftracker.coppersurfer.tk%3A6969&amp;tr=udp%3A%2F%2Fexodus.desync.com%3A6969","seeders":0,"leechers":1,"uploader":"sceneline","files":6,"time":1323281248,"description":"- &lt;a href=&quot;\nhttp://www.Speed.Cd&quot; rel=&quot;nofollow&quot; target=&quot;_NEW&quot;&gt;\nhttp://www.Speed.Cd&lt;/a&gt;      fast  and The Hottest Private Tracker on the net\n\n   signup is open now\n\nPlease Seed back to make the speed Faster!!!\n\n------------------nfo--------------------------\n*******************************************************************************\n                    The.Thing.2011.BRRip.XviD.AC3-PRESTiGE\n*******************************************************************************\n\n\n[color=red]General Information:[/color]\n\nComplete name                    : The.Thing.2011.BRRip.XviD.AC3-PRESTiGE\nFormat                           : AVI\nFormat/Info                      : Audio Video Interleave\nFile size                        : 1.80 GiB\nDuration                         : 1h 43mn\nOverall bit rate                 : 2 499 Kbps\nSubs\t\t\t\t : N/A\nSource\t\t\t\t : 720p BluRay x264-HDW Many THANKS\nEncoder\t\t\t\t : [b][color=maroon]akosipalos[/color][/b]\n\n\niMDB: http://www.imdb.com/title/tt0905372/\n\n\n[color=red]Video[/color]\n\nID                               : 0\nFormat                           : MPEG-4 Visual\nFormat profile                   : Advanced Simple@L5\nFormat settings, BVOP            : 2\nFormat settings, QPel            : No\nFormat settings, GMC             : No warppoints\nFormat settings, Matrix          : Default (H.263)\nCodec ID                         : XVID\nCodec ID/Hint                    : XviD\nDuration                         : 1h 43mn\nBit rate                         : 2 044 Kbps\nWidth                            : 720 pixels\nHeight                           : 304 pixels\nDisplay aspect ratio             : 2.35:1\nFrame rate                       : 23.976 fps\nColor space                      : YUV\nChroma subsampling               : 4:2:0\nBit depth                        : 8 bits\nScan type                        : Progressive\nCompression mode                 : Lossy\nBits/(Pixel*Frame)               : 0.389\nStream size                      : 1.47 GiB (82%)\nWriting library                  : XviD 1.2.1 (UTC 2008-12-04)\n\n[color=red]Audio[/color]\n\nID                               : 1\nFormat                           : AC-3\nFormat/Info                      : Audio Coding 3\nMode extension                   : CM (complete main)\nCodec ID                         : 2000\nDuration                         : 1h 43mn\nBit rate mode                    : Constant\nBit rate                         : 448 Kbps\nChannel(s)                       : 6 channels\nChannel positions                : Front: L C R, Side: L R, LFE\nSampling rate                    : 48.0 KHz\nBit depth                        : 16 bits\nCompression mode                 : Lossy\nStream size                      : 330 MiB (18%)\nAlignment                        : Aligned on interleaves\nInterleave, duration             : 64 ms (1.53 video frames)\nInterleave, preload duration     : 192 ms\n\n\n[color=red]Plot:[/color]\n\nAt an Antarctica research site, the discovery of an alien craft leads to a confrontation between \ngraduate student Kate Lloyd and scientist Dr. Sander Halvorson.  \n\n\n[color=red]Cast:[/color]\n\nMary Elizabeth Winstead, Joel Edgerton and Ulrich Thomsen\n\n\n[color=red]Screens:[/color]\n\n[img]http://i824.photobucket.com/albums/zz161/akosipalos/1-169.png[/img]\n\n[img]http://i824.photobucket.com/albums/zz161/akosipalos/3-148.png[/img]\n\n[img]http://i824.photobucket.com/albums/zz161/akosipalos/2-148.png[/img]\n\n[img]http://i824.photobucket.com/albums/zz161/akosipalos/4-143.png[/img]\n\n\n[color=red]Release Notes:[/color]\n\nWE DONT RELEASE EVERYTHING TO OTHERS SITES YOU WANT MORE OF OUR STUFF COME FIND US AT .......\n\nWE ARE LOOKING FOR SUPPLIERS BLURAY CAM R5 PRE RETAIL DVD GOT SOMETHING WE MIGHT LIKE WHEN YOU FIND US TELL US.......\n\n\n\nENCODER'S - ANYTHING AT ALL EMAIL US AT..... &lt;a class=&quot;__cf_email__&quot; href=&quot;/cdn-cgi/l/email-protection&quot; data-cfemail=&quot;2c5c5e495f58454b496c44595f44414d4540024149&quot;&gt;[email&amp;#160;protected]&lt;/a&gt;&lt;script cf-hash='f9e31' type=&quot;text/javascript&quot;&gt;\n/* &lt;![CDATA[ */!function(){try{var t=&quot;currentScript&quot;in document?document.currentScript:function(){for(var t=document.getElementsByTagName(&quot;script&quot;),e=t.length;e--;)if(t[e].getAttribute(&quot;cf-hash&quot;))return t[e]}();if(t&amp;&amp;t.previousSibling){var e,r,n,i,c=t.previousSibling,a=c.getAttribute(&quot;data-cfemail&quot;);if(a){for(e=&quot;&quot;,r=parseInt(a.substr(0,2),16),n=2;a.length-n;n+=2)i=parseInt(a.substr(n,2),16)^r,e+=String.fromCharCode(i);e=document.createTextNode(e),c.parentNode.replaceChild(e,c)}}}catch(u){}}();/* ]]&gt; */&lt;/script&gt;\n\n** ** ** ** ** ** ** ** **\n\nPRESTiGE is the level of respect at which one is regarded by others....RIzE Above Or Sink Below...\n\n\n-------------------------------------------------------------------------------\n                                 GREETZ:\n-------------------------------------------------------------------------------\n\n\n| Twisted | Bigguy | CTFX | Whitestag13 | THoRN | SANTi | PA4U2C | Jungledave | mtyy | floridajoe | marsby | cld | Stortrapp | Stoner | Rock | Ulap | rizal | mannilim | musikera | centserick2 | AMB | RiZAL Team RG | rock3r | canislupus | sickie | \nfun2knytz and To All Encoders Past And Present...\n\n\n[img]http://i824.photobucket.com/albums/zz161/akosipalos/PRESTiGE-3.png[/img]\n\n\n[b][color=red]PRESTiGE[/color] is the level of respect at which one is regarded by others....RIzE Above Or Sink Below...[/b]\n\n\n-------------------------------------------------------------------------------\nGenerated with Cool NFO Creator - http://fly.to/coolbeans\n-------------------------------------------------------------------------------\n","torrent":{"xt":"urn:btih:5c48da6f8316a17be7276a9b267eec6e5259282a","amp;dn":"The.Thing.2011.BRRip.XviD.AC3-PRESTiGE","amp;tr":["udp%3A%2F%2Ftracker.openbittorrent.com%3A80","udp%3A%2F%2Fopen.demonii.com%3A1337","udp%3A%2F%2Ftracker.coppersurfer.tk%3A6969","udp%3A%2F%2Fexodus.desync.com%3A6969"],"infoHash":"5c48da6f8316a17be7276a9b267eec6e5259282a","infoHashBuffer":{"type":"Buffer","data":[92,72,218,111,131,22,161,123,231,39,106,155,38,126,236,110,82,89,40,42]},"announce":[],"urlList":[]}}